<?xml version="1.0" encoding="UTF-8"?>
<svg width="905px" height="448px" viewBox="0 0 905 448" version="1.1" xmlns="http://www.w3.org/2000/svg" xmlns:xlink="http://www.w3.org/1999/xlink">
    <!-- Generator: Sketch 52.5 (67469) - http://www.bohemiancoding.com/sketch -->
    <title>Artboard</title>
    <desc>Created with Sketch.</desc>
    <defs>
        <linearGradient x1="20.1715385%" y1="-11.6999738%" x2="79.1484492%" y2="111.163569%" id="linearGradient-1">
            <stop stop-color="#FF9D41" offset="0%"></stop>
            <stop stop-color="#FF3F96" offset="100%"></stop>
        </linearGradient>
        <path d="M0.512,203 L0.512,178.376 L10.544,177.464 C16.4213627,176.855997 19.36,174.018692 19.36,168.952 L19.36,27.592 L2.032,26.68 L2.032,0.84 L85.328,0.84 C115.120149,0.84 138.375916,8.74392096 155.096,24.552 C171.816084,40.360079 180.176,63.767845 180.176,94.776 C180.176,114.02943 177.642692,130.799929 172.576,145.088 C167.509308,159.376071 160.61871,170.573293 151.904,178.68 C134.47458,194.893414 112.789463,203 86.848,203 L0.512,203 Z M56.448,30.328 L56.448,173.816 L87.456,173.816 C104.88542,173.816 118.463951,167.533396 128.192,154.968 C137.920049,142.402604 142.784,124.162786 142.784,100.248 C142.784,53.6344336 123.024198,30.328 83.504,30.328 L56.448,30.328 Z M347.072,203 L202.672,203 L202.672,178.376 L212.704,177.464 C218.581363,176.855997 221.52,174.018692 221.52,168.952 L221.52,27.592 L204.192,26.68 L204.192,0.84 L343.424,0.84 L343.424,51.304 L312.416,53.432 L312.416,41.272 C312.416,37.8266494 311.909338,35.3946738 310.896,33.976 C309.882662,32.5573262 307.450686,31.848 303.6,31.848 L258.608,31.848 L258.608,83.832 L328.832,83.832 L328.832,114.84 L258.608,114.84 L258.608,171.688 L307.552,171.688 C311.200018,171.688 313.530662,170.928008 314.544,169.408 C315.557338,167.887992 316.064,165.405351 316.064,161.96 L316.064,146.76 L347.072,148.888 L347.072,203 Z M368.96,203 L368.96,178.376 L378.992,177.464 C384.869363,176.855997 387.808,174.018692 387.808,168.952 L387.808,27.592 L370.48,26.68 L370.48,0.84 L453.472,0.84 C476.981451,0.84 495.018604,5.19728976 507.584,13.912 C520.149396,22.6267102 526.432,36.9145674 526.432,56.776 C526.432,70.5574022 522.834703,81.9066221 515.64,90.824 C508.445297,99.7413779 499.882716,106.226646 489.952,110.28 C497.248036,112.91468 503.023979,119.095951 507.28,128.824 L529.168,176.552 L546.496,177.16 L546.496,203 L471.408,203 L471.408,178.376 L480.224,177.464 C484.885357,176.855997 487.216,175.032015 487.216,171.992 C487.216,170.775994 486.810671,169.357341 486,167.736 L471.712,137.336 C469.482656,132.269308 467.000014,128.672011 464.264,126.544 C461.527986,124.415989 457.626692,123.352 452.56,123.352 L424.896,123.352 L424.896,176.248 L444.656,177.16 L444.656,203 L368.96,203 Z M424.896,94.472 L451.344,94.472 C476.272125,94.472 488.736,83.3254448 488.736,61.032 C488.736,48.2639362 485.4427,39.9546859 478.856,36.104 C472.2693,32.2533141 461.680073,30.328 447.088,30.328 L424.896,30.328 L424.896,94.472 Z M561.392,0.84 L647.12,0.84 C690.896219,0.84 712.784,17.7624974 712.784,51.608 C712.784,70.2534266 703.461427,84.4399514 684.816,94.168 C696.773393,97.2080152 706.146633,102.781293 712.936,110.888 C719.725367,118.994707 723.12,129.533268 723.12,142.504 C723.12,162.162765 716.482733,177.159948 703.208,187.496 C689.933267,197.832052 670.62946,203 645.296,203 L559.872,203 L559.872,178.376 L569.904,177.464 C575.781363,176.855997 578.72,174.018692 578.72,168.952 L578.72,27.592 L561.392,26.68 L561.392,0.84 Z M615.808,110.888 L615.808,174.424 L644.384,174.424 C670.730798,174.424 683.904,163.682774 683.904,142.2 C683.904,132.066616 680.6107,124.314694 674.024,118.944 C667.4373,113.573306 658.064061,110.888 645.904,110.888 L615.808,110.888 Z M615.808,28.808 L615.808,83.832 L638.304,83.832 C650.869396,83.832 660.141303,81.2480258 666.12,76.08 C672.098697,70.9119742 675.088,63.6667133 675.088,54.344 C675.088,45.0212867 672.098697,38.4346859 666.12,34.584 C660.141303,30.7333141 651.578722,28.808 640.432,28.808 L615.808,28.808 Z M800.032,168.952 L800.032,125.784 L748.352,27.592 L734.064,26.68 L734.064,0.84 L808.24,0.84 L808.24,25.464 L799.12,26.376 C795.877317,26.5786677 793.800005,27.7946555 792.888,30.024 C791.975995,32.2533445 792.330659,34.9893171 793.952,38.232 L819.792,91.128 L821.008,91.128 L854.144,27.896 L838.944,26.68 L838.944,0.84 L904.304,0.84 L904.304,25.464 L895.184,26.376 C891.333314,26.7813354 887.888015,29.821305 884.848,35.496 L837.12,125.784 L837.12,176.248 L860.832,177.16 L860.832,203 L775.104,203 L775.104,178.376 L791.216,177.464 C797.093363,177.058665 800.032,174.22136 800.032,168.952 Z M90.648,444 L90.648,419.376 L100.68,418.464 C106.557363,417.855997 109.496,415.018692 109.496,409.952 L109.496,268.592 L92.168,267.68 L92.168,241.84 L175.464,241.84 C205.256149,241.84 228.511916,249.743921 245.232,265.552 C261.952084,281.360079 270.312,304.767845 270.312,335.776 C270.312,355.02943 267.778692,371.799929 262.712,386.088 C257.645308,400.376071 250.75471,411.573293 242.04,419.68 C224.61058,435.893414 202.925463,444 176.984,444 L90.648,444 Z M146.584,271.328 L146.584,414.816 L177.592,414.816 C195.02142,414.816 208.599951,408.533396 218.328,395.968 C228.056049,383.402604 232.92,365.162786 232.92,341.248 C232.92,294.634434 213.160198,271.328 173.64,271.328 L146.584,271.328 Z M303.144,409.952 L352.088,268.288 L332.936,266.464 L332.936,241.84 L402.552,241.84 L464.568,417.248 L464.872,417.248 L482.2,418.16 L482.2,444 L403.768,444 L403.768,419.376 L415.32,418.464 C418.765351,418.058665 421.095994,417.248006 422.312,416.032 C423.528006,414.815994 423.629338,412.586683 422.616,409.344 L416.232,390.496 L345.096,390.496 L335.976,417.248 L354.216,418.16 L354.216,444 L283.992,444 L283.992,419.376 L294.024,418.464 C298.280021,418.058665 301.319991,415.22136 303.144,409.952 Z M380.664,275.888 L352.392,362.528 L408.936,362.528 L381.576,275.888 L380.664,275.888 Z M551.208,409.952 L551.208,366.784 L499.528,268.592 L485.24,267.68 L485.24,241.84 L559.416,241.84 L559.416,266.464 L550.296,267.376 C547.053317,267.578668 544.976005,268.794656 544.064,271.024 C543.151995,273.253344 543.506659,275.989317 545.128,279.232 L570.968,332.128 L572.184,332.128 L605.32,268.896 L590.12,267.68 L590.12,241.84 L655.48,241.84 L655.48,266.464 L646.36,267.376 C642.509314,267.781335 639.064015,270.821305 636.024,276.496 L588.296,366.784 L588.296,417.248 L612.008,418.16 L612.008,444 L526.28,444 L526.28,419.376 L542.392,418.464 C548.269363,418.058665 551.208,415.22136 551.208,409.952 Z M730.264,416.64 C754.584122,416.64 766.744,406.912097 766.744,387.456 C766.744,377.322616 761.373387,369.824024 750.632,364.96 C744.957305,362.122652 737.610712,359.488012 728.592,357.056 C719.573288,354.623988 712.074697,352.141346 706.096,349.608 C700.117303,347.074654 694.08803,343.578689 688.008,339.12 C676.050607,330.202622 670.072,316.472093 670.072,297.928 C670.072,279.383907 676.506602,264.792053 689.376,254.152 C702.245398,243.511947 719.066563,238.192 739.84,238.192 C760.613437,238.192 779.917244,242.346625 797.752,250.656 L797.752,296.256 L766.744,298.384 L766.744,280.752 C766.744,277.711985 766.338671,275.482674 765.528,274.064 C763.298656,270.213314 756.154727,268.288 744.096,268.288 C732.037273,268.288 723.120029,270.415979 717.344,274.672 C711.567971,278.928021 708.68,285.514622 708.68,294.432 C708.68,300.917366 711.111976,306.591976 715.976,311.456 C719.218683,314.698683 724.031968,317.383989 730.416,319.512 C736.800032,321.640011 743.589297,323.818656 750.784,326.048 C757.978703,328.277344 764.362639,330.70932 769.936,333.344 C775.509361,335.97868 781.33597,339.626643 787.416,344.288 C799.778728,353.408046 805.96,367.493238 805.96,386.544 C805.96,405.594762 799.120068,420.591945 785.44,431.536 C771.759932,442.480055 753.722779,447.952 731.328,447.952 C708.933221,447.952 688.818756,443.797375 670.984,435.488 L670.984,387.456 L701.992,385.328 L701.992,403.872 C701.992,406.912015 702.397329,409.141326 703.208,410.56 C704.018671,411.978674 706.501313,413.34666 710.656,414.664 C714.810687,415.98134 721.346622,416.64 730.264,416.64 Z" id="path-2"></path>
    </defs>
    <g id="Artboard" stroke="none" stroke-width="1" fill="none" fill-rule="evenodd">
        <g id="DERBY-DAYS">
            <use fill="#011324" xlink:href="#path-2"></use>
            <use fill="url(#linearGradient-1)" xlink:href="#path-2"></use>
        </g>
    </g>
</svg>